<svg width="25" height="24" viewBox="0 0 25 24" fill="none" xmlns="http://www.w3.org/2000/svg">
<path d="M20.5 16.9997V11.4517V11.451C20.5 10.9171 20.5 10.6501 20.4351 10.4016C20.3775 10.1812 20.2827 9.97226 20.1548 9.78384C20.0104 9.57121 19.8096 9.39532 19.4074 9.04346L14.6074 4.84346C13.8608 4.19017 13.4875 3.86358 13.0674 3.73933C12.6972 3.62986 12.3028 3.62986 11.9326 3.73933C11.5127 3.86351 11.1398 4.18982 10.394 4.84239L10.3928 4.84346L5.59277 9.04346L5.59182 9.0443C5.19032 9.39561 4.98944 9.57138 4.84521 9.78384C4.7173 9.97227 4.62255 10.1812 4.56497 10.4016C4.5 10.6502 4.5 10.9174 4.5 11.4517V16.9997C4.5 17.9316 4.5 18.3974 4.65224 18.765C4.85523 19.255 5.24481 19.6444 5.73486 19.8474C6.10241 19.9996 6.56835 19.9996 7.50023 19.9996C8.43211 19.9996 8.89782 19.9996 9.26537 19.8474C9.75542 19.6444 10.1447 19.255 10.3477 18.765C10.4999 18.3974 10.5 17.9315 10.5 16.9996V15.9996C10.5 14.895 11.3954 13.9996 12.5 13.9996C13.6046 13.9996 14.5 14.895 14.5 15.9996V16.9996C14.5 17.9315 14.5 18.3974 14.6522 18.765C14.8552 19.255 15.2448 19.6444 15.7349 19.8474C16.1024 19.9996 16.5683 19.9996 17.5002 19.9996C18.4321 19.9996 18.8978 19.9996 19.2654 19.8474C19.7554 19.6444 20.1447 19.255 20.3477 18.765C20.4999 18.3974 20.5 17.9316 20.5 16.9997Z" stroke="#000067" stroke-width="2" stroke-linecap="round" stroke-linejoin="round"/>
</svg>
